<?xml version="1.0" standalone="no"?><!DOCTYPE svg PUBLIC "-//W3C//DTD SVG 1.1//EN" "http://www.w3.org/Graphics/SVG/1.1/DTD/svg11.dtd"><svg t="1624279207302" class="icon" viewBox="0 0 1024 1024" version="1.1" xmlns="http://www.w3.org/2000/svg" p-id="5623" width="64" height="64" xmlns:xlink="http://www.w3.org/1999/xlink"><defs><style type="text/css"></style></defs><path d="M716.520727 153.010424a127.658667 127.658667 0 0 1-2.451394 15.577212c1.861818 141.467152 46.576485 225.373091 201.510788 275.39394 52.658424 15.577212 91.322182 61.44 92.842667 117.170424 2.141091 70.128485-55.389091 128.248242-128.155152 130.01697a133.554424 133.554424 0 0 1-106.52703-47.631515v-0.279273c-3.10303-3.599515-5.895758-7.416242-8.502303-11.388121-67.894303-83.905939-240.174545-124.276364-403.704242-97.714425l-0.868849 1.799758c-3.165091 0-6.330182 0.310303-9.464242 0.899879a54.706424 54.706424 0 0 0-35.002182 45.552485c-0.589576 4.902788-0.372364 9.867636 0.620606 14.708363 17.625212 69.818182 63.301818 125.548606 172.900848 163.591758 3.599515 0.899879 7.19903 2.389333 10.798546 3.568485 53.899636 20.976485 88.870788 74.286545 81.609697 132.468363-8.533333 69.507879-73.976242 118.970182-146.121697 110.871273-72.145455-8.067879-124.214303-71.338667-115.68097-140.536242 1.303273-9.712485 3.723636-19.238788 7.230061-28.392728 14.894545-107.302788-29.540848-211.564606-178.393212-260.12703-57.250909-12.567273-100.786424-61.129697-102.586182-119.83903-1.830788-69.818182 55.730424-127.844848 128.465454-129.768728 53.775515-1.768727 103.175758 28.858182 124.803879 77.327516 42.325333 73.69697 245.263515 106.496 369.260606 94.083878l-0.899879-0.620606a9.557333 9.557333 0 0 0 3.04097 0.310303l17.066667-1.830788a52.565333 52.565333 0 0 0 41.673697-45.831757 75.093333 75.093333 0 0 0-0.310303-11.667394c-19.48703-77.886061-66.994424-139.046788-188.136728-178.920727l-0.930909-0.310303-1.210181-0.620606c-55.26497-18.990545-90.546424-72.300606-85.829819-129.768728 6.392242-69.818182 70.345697-121.328485 142.739394-115.060363 72.424727 6.268121 126.603636 67.490909 120.211394 136.967757z" fill="#13227a" p-id="5624"></path><path d="M141.808485 301.366303c5.399273 0.496485 10.767515 1.365333 16.073697 2.544485 145.842424-1.923879 232.385939-48.09697 283.958303-208.027152 16.073697-54.365091 63.363879-94.270061 120.832-95.821575 72.300606-2.172121 132.251152 57.188848 134.11297 132.282181a137.898667 137.898667 0 0 1-49.12097 109.971394h-0.310303a114.812121 114.812121 0 0 1-11.729455 8.781576c-86.543515 70.066424-128.155152 247.932121-100.786424 416.70594l1.861818 0.930909c0 3.258182 0.310303 6.516364 0.930909 9.743515a56.413091 56.413091 0 0 0 46.979879 36.150303c5.057939 0.589576 10.177939 0.372364 15.142788-0.620606 72.021333-18.214788 129.489455-65.349818 168.742788-178.486303 0.930909-3.723636 2.451394-7.447273 3.661576-11.170909 21.628121-55.637333 76.644848-91.756606 136.595394-84.216243 71.68 8.781576 122.693818 76.334545 114.346666 150.807273-8.347152 74.472727-73.541818 128.217212-144.911515 119.404606a130.761697 130.761697 0 0 1-29.292606-7.447273c-110.654061-15.39103-218.174061 30.502788-268.225939 184.133818-12.970667 59.081697-63.053576 104.044606-123.624728 105.906425-71.990303 1.861818-131.816727-57.530182-133.833697-132.623515-1.799758-55.482182 29.789091-106.496 79.747879-128.837819 76.024242-43.659636 109.847273-253.145212 97.031758-381.145212l-0.620606 0.930909a9.867636 9.867636 0 0 0 0.310303-3.13406l-1.861818-17.625212a54.24097 54.24097 0 0 0-47.290182-43.039031 77.358545 77.358545 0 0 0-12.039758 0.341334c-80.368485 20.107636-143.39103 69.135515-184.506182 194.218666l-0.310303 0.930909-0.620606 1.241212c-19.611152 57.095758-74.596848 93.494303-133.864727 88.622546-71.990303-6.609455-125.145212-72.610909-118.659879-147.362909 6.516364-74.78303 69.60097-130.668606 141.28097-124.090182z" fill="#13227a" p-id="5625"></path></svg>